<?xml version="1.0" encoding="UTF-8"?>
<svg id="svg4507" xmlns="http://www.w3.org/2000/svg" xmlns:xlink="http://www.w3.org/1999/xlink" viewBox="0 0 1041.84 873.4">
  <defs>
    <style>
      .cls-1, .cls-2, .cls-3, .cls-4, .cls-5, .cls-6 {
        fill: none;
      }

      .cls-2 {
        stroke: #c8c8c8;
      }

      .cls-2, .cls-3 {
        stroke-width: 10px;
      }

      .cls-2, .cls-3, .cls-4, .cls-7, .cls-5, .cls-6 {
        stroke-linecap: round;
        stroke-linejoin: round;
      }

      .cls-3, .cls-4, .cls-7 {
        stroke: #000;
      }

      .cls-4 {
        stroke-width: 2px;
      }

      .cls-7 {
        fill: url(#pattern4166);
        stroke-width: .75px;
      }

      .cls-8 {
        fill: #fff;
      }

      .cls-5 {
        stroke-width: 4px;
      }

      .cls-5, .cls-6 {
        stroke: #fff;
      }

      .cls-6 {
        stroke-width: 12px;
      }
    </style>
    <pattern id="pattern4166" x="0" y="0" width="18.18" height="18.14" patternTransform="translate(-3907.83 -3812.64) rotate(.3) scale(.46)" patternUnits="userSpaceOnUse" viewBox="0 0 18.18 18.14">
      <g>
        <rect class="cls-1" width="18.18" height="18.14"/>
        <g id="g4907">
          <rect id="rect4899" y=".04" width="18.17" height="18.1"/>
          <rect id="rect4903" class="cls-8" y="9.06" width="9.07" height="9.07"/>
          <rect id="rect4905" class="cls-8" x="9.11" y="0" width="9.07" height="9.07"/>
        </g>
      </g>
    </pattern>
  </defs>
  <g id="layer1">
    <path id="path5316" class="cls-5" d="M787.3,831.74c-1.79,0-161.21-3.59-161.21-3.59-25.32-.8-51.05.41-75.97-2.39-7.88-.89-14.81-6.57-22.43-8.67-2.84-.79-6.01-.38-8.97,0-8.81,1.12-17.52,3.18-26.32,4.49-5.26.78-10.54,1.66-15.85,1.79-39.55.97-79.16.99-118.74,1.5-45.56.59-91.12,1.22-136.68,1.79-41.27.52-83.04,3.02-123.82,1.5-4.58-.17-8.58-3.83-12.26-6.58-4.2-3.13-7.8-6.85-10.62-11.22"/>
    <path id="path5306" class="cls-6" d="M387.01,602.53c-3.21-11.86-5.35-30.94-2.29-41.78,2.92-10.3,11.65-20.8,20.34-27.52,8.86-6.84,21.2-12.2,32.3-13.16,12.03-1.04,34.18,6.36,45.18,16.53"/>
    <path id="path5308" class="cls-6" d="M306.96,376.82c-21.24-15.55-49.91-31.95-69.09-49.65-14.42-13.31-26.22-34.79-38.58-50.25"/>
    <path id="path5310" class="cls-6" d="M300.68,364.26c.4-5.98,6.51-13.34,10.47-15.85,3.92-2.48,9.69-3.72,14.36-3.29,5.1.47,13.86,2.49,17.95,7.78"/>
    <path id="path5312" class="cls-6" d="M313.84,292.47c3.09,7.78,3.37,15.8,1.79,22.73-.92,4.03-4.4,7.99-7.78,10.47-4.1,3.01-19.83,4.95-24.82,2.99"/>
    <path id="path5314" class="cls-6" d="M433.78,834.73c-101.69.18-203.09,2.69-304.77,2.69-11.57,0-24.15-.11-34.99-2.69-5.91-1.41-11.81-5.93-15.55-10.77-5.83-7.53-11.29-17.18-13.16-26.32-1.32-6.41.61-14.38,3.59-20.34,3.8-7.6,9.69-15.76,16.75-20.34,7.7-5,18.01-8,27.52-8.37,40.74-1.62,82.35,3.87,123.23,2.39,14.16-.51,28.24-4.41,41.87-8.37,20.66-6.01,40.37-15.72,61.01-21.53,7.67-2.16,16.11-3.06,23.93-2.39,6.15.53,13.47,1.71,17.95,5.98,22.65,21.65,41.02,49.4,63.41,71.78,5.13,5.13,12.25,8.17,19.14,8.97,10.25,1.19,21.31-.22,28.71-5.98,6.95-5.41,13.94-16.07,14.36-25.72.38-8.69-2.98-18.97-8.37-26.32-29.7-40.5-68.67-75.71-96.91-117.24-13.24-19.48-21.45-42.97-27.52-65.8-9.09-34.19-9.93-70.74-17.95-105.28-3.55-15.31-8.81-30.9-16.75-44.27-8.41-14.15-20.43-26.64-32.3-38.28-11.54-11.32-6.38-14.2-2.99-26.62,1.37-5.03-8.98-17.31-13.76-18.84-16.78-5.37-31.25-10.77-46.66-17.95-13.71-6.38-40.08-23.87-46.06-37.39-19.89-44.99-33.89-83.6-50.85-132.5-3.79-10.92-4.66-23.3-3.59-34.69,1.32-14.13,4.12-29.55,10.77-41.87,6.91-12.8,17.88-25.34,29.31-34.69,10.5-8.59,23.55-15.91,36.49-19.14,15.77-3.94,33.81-3.8,50.25-1.2,41.38,6.56,64.46,17.58,106.18,23.03,28.03,3.66,66.09,5.92,93.91,8.67,8.91.88,27.9,11.96,32,19.74,11.05,20.94,19.4,46.46,22.73,70.59,3.44,24.92,1.62,51.5-4.79,75.97-3.9,14.92-6.65,31.34-14.95,43.07-5.25,7.42-14.55,11.3-23.63,11.66-10.86.43-25.56-7.42-33.8-14.95-15.3-14-25.49-28.43-36.49-46.36-14.88-24.27-31.6-48.91-51.44-68.19-8.47-8.23-22.1-13.53-33.5-14.36-10.54-.77-23.82,3.31-32.3,9.57-8.27,6.1-15.69,17.17-16.45,27.52-1.21,16.48.8,34.58,6.28,51.14,14.46,43.66,31.32,88.06,52.04,129.51,15.17,30.33,32.39,60.17,52.64,87.33,30,40.23,63.6,78.33,98.1,114.85,20.13,21.31,40.62,35.01,61.91,55.03,13.5,12.7,8.57,19.21,3.89,25.12-4.68,5.92-17.95,22.73-17.95,28.71s.2,23.53,8.37,31.11c8.02,7.43,30.17,14.43,40.98,7.78,67.56-41.59,139.39-86.12,209.66-130.7,10.64-6.75,29.19-10.69,41.27-9.87,11.44.78,25.99,7.26,32.9,16.15,15.42,19.83,24.91,44.94,34.1,69.99,8.36,22.81,14.26,47.49,15.85,71.18,1.2,17.78-2.81,36.77-9.87,53.24-7.3,17.03-18.45,33.55-32.6,45.16-16.95,13.91-57.51,32.02-79.86,32.3-125.65,1.59-233.69-1.12-361.3-.9Z"/>
    <path id="path5041" class="cls-2" d="M387.01,602.53c-3.21-11.86-5.35-30.94-2.29-41.78,2.92-10.3,11.65-20.8,20.34-27.52,8.86-6.84,21.2-12.2,32.3-13.16,12.03-1.04,34.18,6.36,45.18,16.53"/>
    <path id="path5043" class="cls-2" d="M300.98,366.79c-.54-9.86,6.88-16.67,4.17-24.5-2.61-6.18-.3-2.22-2.78-5.55-.47-.55,3.01,3.8-2-1.28-2.26-2.29-1.61-.68-2.81-1.02-4.77-1.37-1.84.58-7.97-1.2-6.13-1.78-37.38-18.26-53.66-25.16-16.28-6.9-31.67-22.49-39.55-34.44"/>
    <path id="path5045" class="cls-2" d="M300.68,364.26c.4-5.98,6.51-13.34,10.47-15.85,3.92-2.48,9.69-3.72,14.36-3.29,5.1.47,13.86,2.49,17.95,7.78"/>
    <path id="path5047" class="cls-2" d="M313.84,292.47c3.09,7.78,3.37,15.8,1.79,22.73-.92,4.03-3.37,9.54-6.74,12.02-4.1,3.01-15.45,7.72-20.44,5.76"/>
    <path id="path4530" class="cls-3" d="M433.78,834.73c-101.69.18-203.09,2.69-304.77,2.69-11.57,0-24.15-.11-34.99-2.69-5.91-1.41-11.81-5.93-15.55-10.77-5.83-7.53-11.29-17.18-13.16-26.32-1.32-6.41.61-14.38,3.59-20.34,3.8-7.6,9.69-15.76,16.75-20.34,7.7-5,18.01-8,27.52-8.37,40.74-1.62,82.35,3.87,123.23,2.39,14.16-.51,28.24-4.41,41.87-8.37,20.66-6.01,40.37-15.72,61.01-21.53,7.67-2.16,16.12-3.06,23.93-2.39,6.15.53,13.47,1.71,17.95,5.98,22.65,21.65,41.02,49.4,63.41,71.78,5.13,5.13,12.25,8.17,19.14,8.97,10.25,1.19,21.31-.22,28.71-5.98,6.95-5.41,13.94-16.07,14.36-25.72.38-8.69-2.98-18.97-8.37-26.32-29.7-40.5-68.67-75.71-96.91-117.24-13.24-19.48-21.45-42.97-27.52-65.8-9.09-34.19-9.93-70.74-17.95-105.28-3.55-15.31-8.81-30.9-16.75-44.27-8.41-14.15-20.43-26.64-32.3-38.28-13.55-15.34-18.08-16.58-34.48-31.97-10.75-8.6-21.34-16.45-35.09-26.43-5.61-4.07-28.13-19.63-39.89-42.4-22.57-43.7-33.89-83.6-50.85-132.5-3.79-10.92-4.66-23.3-3.59-34.69,1.32-14.13,4.12-29.55,10.77-41.87,6.91-12.8,17.88-25.34,29.31-34.69,10.5-8.59,23.55-15.91,36.49-19.14,15.77-3.94,33.81-3.8,50.25-1.2,41.38,6.56,64.46,17.58,106.18,23.03,28.03,3.66,66.09,5.92,93.91,8.67,8.91.88,27.9,11.96,32,19.74,11.05,20.94,19.4,46.46,22.73,70.59,3.44,24.92,1.62,51.5-4.79,75.97-3.9,14.92-6.65,31.34-14.95,43.07-5.25,7.42-14.55,11.3-23.63,11.66-10.86.43-25.56-7.42-33.8-14.95-15.3-14-25.49-28.43-36.49-46.36-14.88-24.27-31.6-48.91-51.44-68.19-8.47-8.23-22.1-13.53-33.5-14.36-10.54-.77-23.82,3.31-32.3,9.57-8.27,6.1-15.69,17.17-16.45,27.52-1.21,16.48.8,34.58,6.28,51.14,14.46,43.66,31.32,88.06,52.04,129.51,15.17,30.33,32.39,60.17,52.64,87.33,30,40.23,63.6,78.33,98.1,114.85,20.13,21.31,40.62,35.01,61.91,55.03,13.5,12.7,8.57,19.21,3.89,25.12-4.68,5.92-17.95,22.73-17.95,28.71s.2,23.53,8.37,31.11c8.02,7.43,30.17,14.43,40.98,7.78,67.56-41.59,139.39-86.12,209.66-130.7,10.64-6.75,29.19-10.69,41.27-9.87,11.44.78,25.99,7.26,32.9,16.15,15.42,19.83,24.91,44.94,34.1,69.99,8.36,22.81,14.26,47.49,15.85,71.18,1.2,17.78-2.81,36.77-9.87,53.24-7.3,17.03-18.45,33.55-32.6,45.16-16.95,13.91-57.51,32.02-79.86,32.3-125.65,1.59-233.69-1.12-361.3-.9h0Z"/>
    <path id="path5049" class="cls-4" d="M787.3,831.74c-1.79,0-161.21-3.59-161.21-3.59-25.32-.8-51.05.41-75.97-2.39-7.88-.89-14.81-6.57-22.43-8.67-2.84-.79-6.01-.38-8.97,0-8.81,1.12-17.52,3.18-26.32,4.49-5.26.78-10.54,1.66-15.85,1.79-39.55.97-79.16.99-118.74,1.5-45.56.59-91.12,1.22-136.68,1.79-41.27.52-83.04,3.02-123.82,1.5-4.58-.17-8.58-3.83-12.26-6.58-4.2-3.13-7.8-6.85-10.62-11.22"/>
    <polygon id="rect3457" class="cls-7" points="436.9 855.58 449.31 855.65 449.55 810.25 437.14 810.18 436.9 855.58"/>
  </g>
</svg>