<?xml version="1.0" encoding="UTF-8"?><svg id="Layer_1" xmlns="http://www.w3.org/2000/svg" viewBox="0 0 3500 3500"><path d="M3059.77,2672.19c9.41,2.86,17.65,5.74,26.09,7.83,8.23,2.04,15.68,7.05,25.19,7.7-24.18-63.51-46.78-126.1-67.16-189.46-20.44-63.54-42.74-126.51-60.15-190.7,3.42-2.27,6.34-3.64,8.52-5.76,14.6-14.22,27.96-29.57,34.13-49.38,4.89-15.71,9.04-31.76,12-47.94,8.48-46.28,11.76-93.18,13.87-140.07,2.64-58.85,2.88-117.74-1.42-176.61-3.78-51.69-8.71-103.21-17.47-154.32-4.91-28.64-11.35-56.85-21.73-84.12-21.39-56.18-69.22-89.88-129.29-90.08-65.52-.22-130.97,2.05-196.29,7.25-18.16,1.45-35.98,5.22-53.23,11.53-29.7,10.87-52.19,29.87-66.27,58.26-5.04,10.16-9.48,20.7-13.29,31.39-8.25,23.16-11.87,47.39-15.41,71.61-1.39,9.48-2.78,18.97-4.2,28.64-1.71-.08-2.84,0-3.92-.21-19.82-3.84-39.59-7.98-59.46-11.53-33.03-5.9-66.13-11.45-99.2-17.09-25.23-4.3-50.47-8.49-75.71-12.74-11.49-1.93-22.99-3.87-34.48-5.82-2.79-.47-5.92-.64-5.34-5.48,1.63-.45,3.42-1.21,5.27-1.4,22.13-2.24,43.9-6.4,65.37-12.14,14.1-3.77,27.65-8.9,39.59-17.53,9.43-6.81,15.44-15.8,16.92-27.54.67-5.32,1.43-10.64,2.23-16.56,33.38,4.12,66.67,6.97,97.98,18.12,0,11.91.11,22.71-.03,33.52-.14,10.98-1.34,21.99-.07,33.34,7.37.87,13.74,1.63,20.38,2.42.43-1.98.75-3.03.87-4.1,1.81-16.11,4.04-32.19,5.31-48.35,3.42-43.7,7.48-87.39,9.3-131.16,1.9-45.79,1.59-91.68,2.03-137.52.15-15.59-3.65-30.54-10.06-44.63-6.48-14.24-16.22-26.01-29.48-34.67-15.87-10.36-33.32-15.98-52.17-16.84-24.46-1.12-48.94-2.02-73.42-2.6-41.84-.98-83.69-1.64-125.53-2.43-1.99-.04-4,.02-5.97-.26-3.11-.44-4.44-2.21-3.26-5.95,51.46-2.97,103.11-2.67,156.6-1.87-8.59-11.32-17.11-19.09-27.46-24.88-2.69-1.51-6.32-2.57-6.81-7.02,6.51-1.43,11.44,1.61,16.27,4.32,10.06,5.65,18.35,13.52,25.66,22.3,2.89,3.47,5.85,4.61,10.17,4.59,32.18-.1,64.37.09,96.55-.03,7.95-.03,15.97-.33,23.82-1.46,24.22-3.49,41.87-15.47,49.37-39.84.84-2.72,1.68-5.44,2.4-8.19,8.35-32.11,11.06-65.01,13.48-97.93,1.1-15.04,1.4-30.15,2.65-45.18,3.56-42.69,2.34-85.4-.12-128.03-1.46-25.25-5.01-50.39-8.23-75.51-2.21-17.2-5.01-34.37-11.41-50.67-8.18-20.81-22.73-35.18-43.79-42.7-10.24-3.65-20.86-5.66-31.8-5.65-55.25.06-110.51-.05-165.76.32-11.91.08-23.88,1.4-35.7,3.05-17.62,2.46-32.15,10.79-43.33,24.87-7.74,9.75-12.95,20.68-16.46,32.54-6.4,21.64-9.59,43.85-12.08,66.2-1.22,10.96-2.68,21.9-3.99,32.59-12.69,2.52-140.82,3.32-153.46.88,0-6.8,0-13.84,0-20.87,0-23.35.02-46.7-.04-70.05-.01-5.03,1.31-9.55,4.28-13.58,7.93-10.75,15.07-22.25,24.07-32.01,9.6-10.41,13.79-21.86,13.05-35.6-.09-1.7,0-3.42,0-5.13-.1-45-.18-90-.3-135-.04-14.81-.15-29.62-.36-44.43-.04-2.93-.67-5.85-1.03-8.76-13.36,1.27-16.06,11.93-20.98,20.67-2.6-14.87-.13-29.61-2.39-43.47h-646.79v42.24c-4.56-3.62-7.27-7.79-10.33-11.68-3.19-4.05-7.22-7.01-13.13-8.45-.22,3.16-.48,5.6-.53,8.04-.16,7.4-.32,14.81-.35,22.21-.27,54.96-.61,109.93-.7,164.89-.02,12.57,3.5,23.99,12.42,33.58,8.93,9.61,16.54,20.25,22.92,31.79,3.84,6.93,5.87,13.97,5.8,21.93-.23,26.49-.14,52.97-.22,79.46,0,1.61-.37,3.23-.55,4.68-14.88,2.05-139.13.92-152.17-1.42-.96-5-2.22-10.23-2.94-15.54-2.51-18.6-4.45-37.28-7.35-55.82-2.47-15.75-6.2-31.27-13.42-45.68-10.82-21.58-28.22-34.91-51.85-39.02-12.83-2.23-26.03-3.09-39.08-3.19-43.86-.34-87.72-.12-131.58.01-13.38.04-26.78.16-40.15.79-34.45,1.64-59.64,20.14-68.38,52.88-4.61,17.26-8.12,34.91-10.59,52.6-2.74,19.69-4.07,39.6-5.39,59.45-1.48,22.13-2.91,44.29-3.17,66.46-.27,23.04.96,46.09,1.41,69.14.73,37.03,3.43,73.91,8.86,110.55,2.5,16.89,5.42,33.74,12.3,49.54,7.45,17.14,20.52,27.69,38.65,31.82,5.23,1.19,10.69,2.02,16.04,2,38.45-.15,76.89-.58,115.34-.86,3.97-.03,6.7-1.24,9.18-4.78,8.42-11.98,20.13-19.94,33.57-25.42,1.64-.67,3.47-.85,6.85-1.63-8.73,13.9-25.43,17.69-32.03,32.51,51.21.04,101.51-.24,151.92,1.8.52,7.03-4.18,6.27-7.93,6.36-33.31.78-66.62,1.45-99.92,2.2-27.61.62-55.23,1.09-82.83,2.07-11.35.4-22.87.95-33.95,3.23-27.22,5.6-49.32,19-61.56,45.2-6.94,14.86-10.71,30.71-11.07,47.05-.69,30.46-.87,60.94-.83,91.42.02,17.65.5,35.32,1.48,52.94.98,17.6,2.86,35.14,4.29,52.72,2.48,30.62,4.78,61.26,7.41,91.87.97,11.26,2.65,22.46,4.12,34.68,7.21-.79,13.83-1.51,21.26-2.32-.51-23.52-1.01-46.16-1.52-69.28,32.45-8.66,64.51-13.8,97.82-15.31.41,3.98.71,7.04,1.05,10.11,1.47,13.05,6.76,24.23,17.5,31.99,6.17,4.46,12.88,8.59,19.94,11.33,10.83,4.2,22.01,7.88,33.35,10.3,16.39,3.49,33.05,5.71,49.61,8.33,4.25.67,8.08,1.56,9.78,6.01-93.69,16.33-186.88,32.58-280.52,48.9-1.11-9.45-2.18-19.32-3.44-29.16-3.61-28.27-8.49-56.27-18.96-82.98-19.21-48.98-54.87-77.38-106.72-86.32-28.19-4.86-56.67-4.67-85.03-6.56-21.84-1.45-43.78-1.42-65.68-2.05-1.14-.03-2.28-.12-3.41-.14-24.76-.42-49.58-2.07-74.27-.96-39.17,1.76-72.04,17.88-96.79,48.79-17.39,21.72-27.58,47.01-34.22,73.78-3.15,12.68-6.06,25.48-8.04,38.38-4.69,30.63-9.18,61.3-12.93,92.06-2.51,20.6-3.86,41.36-5.26,62.07-1.76,25.83-3.86,51.67-4.36,77.53-1.1,56.93.3,113.85,5.01,170.62,2.83,34.03,7.86,67.8,14.45,101.32,2.75,14,6.36,27.76,12.73,40.6,8.89,17.91,21.45,32.65,39.06,43.18-18.84,64.44-40.77,127.56-62.36,190.79-21.62,63.33-44.07,126.37-66.36,190.11,8.93-2.92,17.3-5.49,25.56-8.39,8.03-2.82,15.94-5.97,23.9-8.97.38.49.76.97,1.14,1.45-7.49,11.71-15.12,23.33-22.43,35.14-13.17,21.3-26.23,42.68-39.17,64.11-3.96,6.56-2.82,9.69,4.72,11.85,4.84,1.39,10.08,1.93,15.14,1.97,68.04.59,136.11-1.16,204.07,3.5,20.44,1.4,40.97,2.01,61.31,4.32,37.85,4.31,75.71,8.85,113.36,14.67,64.92,10.02,129.69,20.99,194.49,31.76,44.6,7.41,89.07,15.66,133.74,22.64,59.28,9.26,118.64,18.12,178.08,26.26,42.82,5.87,85.82,10.39,128.77,15.32,24.58,2.82,49.2,5.38,73.82,7.8,25.48,2.5,50.97,4.95,76.5,6.93,21.25,1.65,42.54,2.82,63.83,3.76,29.84,1.33,59.69,2.65,89.55,3.23,26.76.52,53.54.07,80.31-.03,7.12-.03,14.24-.17,21.35-.53,25.02-1.26,50.05-2.47,75.05-4.01,28.69-1.77,57.41-3.26,86.01-5.97,52.68-4.99,105.33-10.32,157.9-16.36,45.77-5.26,91.52-10.94,137.08-17.81,67.21-10.13,134.27-21.31,201.34-32.37,71.56-11.79,142.99-24.36,214.6-35.81,51.67-8.27,103.34-16.96,155.62-20.51,40.88-2.78,81.81-5.47,122.76-6.53,43.26-1.12,86.57-.21,129.86-.3,5.1-.01,10.23-.53,15.29-1.22,4.6-.62,8.56-2.67,11.46-7.13-18.45-36.84-41.5-70.77-64.36-105.67ZM2599.59,1644.45c17.93-27.33,42.66-43.4,75.4-47.32,31.95-3.83,63.97-6.29,96.13-7.24,29.59-.88,59.15-2.54,88.74-3.37,11.35-.32,22.89-.36,34.07,1.3,35.07,5.21,60.54,24.87,78.08,55.07,14.35,24.71,20.01,52.33,24.92,80.39-.75-1.14-1.58-2.24-2.23-3.44-.67-1.25-1.12-2.61-1.74-3.89-3.71-7.68-7.07-15.56-11.25-22.97-8.94-15.86-23.09-24.9-40.96-25.4-26.43-.74-52.93-.08-79.38.73-19.33.59-38.65,2.16-57.94,3.72-21.26,1.72-42.51,3.71-63.72,6.01-22.05,2.4-44.14,4.72-66.04,8.21-14.25,2.27-28.33,6.07-42.21,10.12-9.38,2.74-17.76,7.75-21.29,18.14-.7-.13-1.4-.26-2.1-.39-.84-6.66-1.39-13.38-2.59-19.98-2.38-13.15-5-26.25-7.75-39.33-.81-3.85-.39-6.95,1.85-10.35ZM2927.98,2489.14c-37.92,3.87-75.83,7.89-113.77,11.5-23.51,2.24-47.07,3.93-70.62,5.75-35.75,2.76-71.5,5.35-107.25,8.13-28.08,2.18-56.15,4.6-84.24,6.81-39.42,3.1-78.89,5.64-118.26,9.27-48.14,4.44-96.35,8.62-143.8,18.44-35.14,7.27-69.71,16.63-103.31,29.31-8.76,3.3-17.45,7.09-25.53,11.77-7.27,4.22-13.65,9.97-21.08,15.54,4.2-11.19,11.16-19.94,19.83-27.46,10.21-8.86,21.89-15.53,34.32-20.5,39.07-15.63,78.22-31.12,117.59-45.97,22.49-8.48,46.39-11.15,70.13-13.91,35.34-4.1,70.89-5.31,106.39-7.44,114.64-6.88,229.37-4.02,344.07-4.64,33.31-.18,66.62-.24,99.93-.35,3.09-.01,6.19,0,9.28,0,.06.69.12,1.37.18,2.06-4.62.57-9.23,1.23-13.86,1.7ZM2952.39,2547.75c5.33-.44,10.73-.06,16.01-.06,2.47,7.86,2.15,8.63-4.76,10.2-49.39,11.25-99.11,20.71-149.35,27.26-44,5.74-88.05,11.06-132.09,16.49-42.07,5.19-84.11,10.57-126.23,15.3-30.82,3.46-61.75,5.91-92.61,9-31.14,3.12-62.25,6.52-93.38,9.73-24.62,2.53-49.26,4.92-73.88,7.42-25.19,2.56-50.36,5.32-75.57,7.71-17,1.62-34.05,2.7-51.06,4.15-5.95.51-11.92,1.11-17.78,2.18-8.49,1.55-16.38,4.73-23.32,10.01-3.08,2.34-6.23,4.6-9.34,6.89,11.62-20.96,28.35-35.17,51.86-39.88,31.22-6.25,62.3-13.47,93.76-18.11,45.28-6.68,90.81-11.8,136.31-16.88,37.88-4.23,75.88-7.33,113.81-11.12,41.89-4.18,83.75-8.62,125.63-12.85,31.13-3.14,62.25-6.42,93.42-9.13,49.88-4.33,99.8-8.18,149.7-12.32,22.97-1.91,45.9-4.12,68.87-6ZM2897.84,2410.26c-47.75,2.57-95.49,5.47-143.26,7.46-65.14,2.72-130.32,4.51-195.46,7.13-42.09,1.69-84.2,3.5-126.21,6.5-34.43,2.46-68.12,9.54-100.76,21.15-44.81,15.94-88.59,34.33-131.36,55.11-13.59,6.6-26.94,13.64-37.22,25.19-.3.34-1.02.32-3.14.9,3.72-9.24,8.94-15.93,15.69-21.11,9.92-7.6,19.77-15.6,30.65-21.59,56.86-31.32,114.87-60.29,175.85-82.89,30.73-11.39,62.5-17.07,95.3-16.56,47.54.74,95.1,1.2,142.63,2.49,44.39,1.2,88.75,3.32,133.12,5.04,44.37,1.72,88.73,3.42,133.1,5.17,5.12.2,10.24.55,15.33,1.07,1.78.18,3.49,1.09,5.23,1.67,0,.6,0,1.21,0,1.81-3.17.5-6.32,1.29-9.51,1.46ZM2175.13,2472.49c2.43-3.35,4.68-6.86,7.33-10.04,12.44-14.91,26.77-27.88,41.77-40.13,23.96-19.55,48-39,72.01-58.5.47.46.95.92,1.42,1.38-1.88,2.16-3.56,4.54-5.66,6.46-19.73,18.01-39.38,36.1-59.35,53.85-18.45,16.4-39.37,29.93-56.01,48.45-.5-.5-1.01-.99-1.51-1.49ZM2894.58,2222.97c-6.48-11.93-12.77-23.5-19.64-36.13,6.69-.15,12.97.7,18.75-.63,11.36-2.6,17.12,2.11,21.17,12.19,2.68,6.67,7.19,12.61,11.36,19.69-11.37,1.75-21.38,3.3-31.64,4.88ZM2576.52,1724.62c.88-1.41,1.64-2.9,3.36-5.94,2.65,5.05,4.12,7.67,5.42,10.38,7.96,16.63,11.37,34.52,14.05,52.53,5.41,36.29,8.88,72.77,10.87,109.44,2.56,47.21,3.48,94.44,2.51,141.67-.73,35.25-2.84,70.48-5.14,105.67-1.14,17.57-4.22,35-10.12,51.74-1.27,3.61-3.16,7-4.76,10.49-.74-.19-1.48-.39-2.22-.59-3-9.83-3.31-20.02-2.37-30.15,7.54-81.48,8.12-163.14,5.73-244.81-1.3-44.61-4.77-89.18-11.5-133.37-2.18-14.29-5.78-28.39-9.16-42.47-2.1-8.77-1.47-16.88,3.33-24.59ZM2565,2251.94c6.24,13.94,16.37,21.22,32.2,22.47,32.88,2.61,65.7,6.22,98.48,10,47.18,5.44,94.31,11.37,141.44,17.22,4.57.57,9.02,2.05,13.53,3.11-.13.68-.26,1.37-.39,2.05-12.68-.94-25.37-1.68-38.02-2.86-26.07-2.43-52.13-4.94-78.16-7.71-33.39-3.56-66.74-7.38-100.11-11.16-37.88-4.3-75.65-9.56-113.99-8.16-34.56,1.26-68.49,6.29-102.1,14.17-41.19,9.66-81.01,22.9-117.98,43.87-24.84,14.09-48.02,30.59-70.19,48.48-16.17,13.04-31.87,26.66-47.69,40.13-15.54,13.23-24.45,30.18-29.07,49.99-7.42,31.84-15.54,63.51-23.53,95.21-4.72,18.74-10.81,37.2-14.34,56.15-4.06,21.82-18.37,32.35-37.38,38.88-9.71,3.33-19.73,5.24-30.12,5.33-29.61.27-59.22.8-88.83,1.2-1.96.03-3.93-.18-7.03-.34v-58.42c.42-.62.62-1.31,1.06-1.52,13.68-6.61,20.53-17.57,20.59-32.68.11-27.91.51-55.82-.03-83.72-.38-19.85-12.06-32.42-29.37-40.42-2.32-1.07-4.73-2.01-7.19-2.66-3.58-.95-5.24-3.1-5.16-6.76.05-1.99-.05-3.99-.05-5.98-.18-140.12-.35-280.24-.52-420.36,0-2.83,0-5.66,0-9.54,3.48-.18,6.49-.61,9.46-.44,21.59,1.22,43.18,2.33,64.74,3.94,22.97,1.71,45.94,3.57,68.85,5.99,39.02,4.12,78.03,8.42,116.97,13.2,36.41,4.46,72.73,9.64,109.09,14.5,27.34,3.65,54.67,7.35,82.02,10.91,9.02,1.18,18.08,2.17,27.14,2.96,5.5.48,8.51,2.88,10.03,8.43,3.89,14.26,7.98,28.49,12.73,42.48,2.63,7.76,6.32,15.25,10.28,22.45,6.12,11.11,15.84,16.73,28.69,16.77,19.08.05,38.16.18,57.24.36,4.23.04,8.46.42,12.89.65,1.8,12.44,3.46,24.47,5.3,36.47,3.08,19.99,6.77,39.84,15.27,58.41,1.07,2.33,2.21,4.62,3.26,6.95ZM2093.53,1853.71v11.14c-5.36-9.77-8.08-20.29-10.68-30.53,3.63.73,7.22,1.83,10.87,2.11,23.83,1.84,47.7,3.27,71.51,5.39,6.71.59,13.44,2.48,19.82,4.73,10.61,3.74,20.96,8.25,31.42,12.43-40.92-5.12-81.68-6.11-122.94-5.27ZM2394.59,1975.17c-101.31-16.97-200.79-33.63-300.26-50.36-.93-.16-1.71-1.2-3.14-2.27,24.9,1.67,285.09,39.42,303.39,52.63ZM2080.06,1826.99c-1.82-4.8-3.9-10.31-6.37-16.86,24.78,4.86,48.58,9.41,72.31,14.3,4.51.93,8.73,3.22,12.58,6.15-25.93-1.19-51.86-2.37-78.52-3.6ZM2091.95,1941.29c60.98,9.41,121.93,19.02,182.85,28.81,36.5,5.86,72.93,12.15,109.35,18.42,6.42,1.11,12.68,3.14,19.04,4.67,7.01,1.69,11.39,5.93,13.3,14.18-4.44-.25-8.54-.15-12.52-.76-50.03-7.73-100.06-15.5-150.06-23.41-40.45-6.4-80.85-13.12-121.31-19.47-31.75-4.98-63.58-9.46-95.33-14.45-13.93-2.19-27.75-5.09-41.62-7.67,32.16-2.75,64.27-5.27,96.29-.33ZM2333.13,1818.73c-20.52-3.16-41.15-5.79-61.52-9.76-19.22-3.74-38.19-8.81-57.21-13.55-3.37-.84-6.42-2.93-9.29-5.57,105.31,11.34,210.17,24.87,316.06,37.5-.57,6.1-.99,10.56-1.43,15.28-2.03.13-3.42.43-4.76.28-29.97-3.34-60-6.25-89.89-10.23-30.73-4.1-61.32-9.23-91.96-13.95ZM2377.22,1792.03c-10.65-1.29-21.31-2.46-31.95-3.89-36.63-4.91-73.31-9.55-109.86-14.98-26.41-3.92-52.7-8.71-78.95-13.59-6.82-1.27-13.31-4.33-19.95-6.56.11-.74.22-1.49.33-2.23,3.66.29,7.35.36,10.97.9,17.71,2.61,35.41,5.36,53.12,8.01,37.38,5.59,74.82,10.81,112.13,16.87,19.62,3.19,39,7.82,58.47,11.89,2.07.43,4.01,1.48,6.01,2.24-.11.45-.22.9-.33,1.35ZM2231.75,1826.03c13.59,7.74,26.84,16.06,40.38,23.9,4.12,2.38,8.4,6.42,13.3.45,1-1.22,4.36-.81,6.6-.68,12.2.7,24.47.93,36.56,2.49,21.69,2.8,43.27,6.4,64.89,9.75,3.34.52,6.61,1.46,10.81,2.4-1.7,24.88-3.35,48.87-5.03,73.41-12.62-7.52-24.75-14.73-36.85-21.97-85.42-51.14-172.57-99.23-259.51-147.71-18.62-10.38-36.66-21.81-54.92-32.82-1.61-.97-2.92-2.44-3.76-5.11,6.72,1.97,13.59,3.52,20.11,5.99,17.03,6.44,33.58,13.85,49.44,22.98,39.18,22.56,78.69,44.55,117.98,66.93ZM2055.15,1814.66c.86,6.85,1.68,13.47,2.56,20.47-39.82.65-78.3-5.5-117.64-7.96v-21.3c38.52.78,76.28,7.54,115.08,8.79ZM2064.29,1858.24c1.48,7.29,2.95,14.48,4.65,22.87-44.44-3.77-87.85-8.42-131.73-14.52v-19.35c42.49,3.68,84.25,7.29,127.07,11ZM2540.45,1879.63c4.51,9.47,12.43,44.94,13.94,62.96-3.05.14-6.08.38-9.11.41-21.91.26-43.82.48-65.73.71-1.14.01-2.28.05-3.41.11-9.66.56-12.66,2.71-14.14,12.49-1.4,9.25-1.76,18.67-2.43,28.03-1.32,18.13-2.53,36.26-4.59,54.36-.82-23.65-1.9-47.29-2.39-70.94-.71-34.54-10.48-66.61-25.56-97.33-.49-1-.97-1.99-1.53-3.13,38.82,4.17,76.9,8.25,114.93,12.33ZM2259.2,1725.62c32.04,4.94,64.1,9.77,96.07,15.17,47.39,8.01,94.7,16.43,142.03,24.79,11.73,2.07,23.38,4.61,35.48,7.01v13.39c-7.11-1.47-13.62-2.97-20.19-4.14-35.27-6.3-70.53-12.67-105.85-18.72-29.71-5.09-59.45-10.05-89.25-14.58-26.71-4.06-53.51-7.62-80.31-11.11-43.72-5.69-87.48-11.18-131.23-16.66-29.36-3.68-58.72-7.28-88.1-10.8-25.7-3.08-51.43-5.97-77.14-9-3.05-.36-6.07-1.02-10.06-1.7,1.04-12.16,2.04-23.93,3.15-36.97,18.46,3.77,36.38,7.43,55.13,11.25v16.14c15.3,2.17,29.84,4.4,44.42,6.26,40.05,5.12,80.13,10.1,120.2,15.11,14.11,1.76,28.26,3.25,42.34,5.21,21.12,2.94,42.22,6.07,63.3,9.32ZM1920.77,2669.9h-109.47c1.6-2.39,2.29-3.88,3.38-4.97,12.65-12.75,16.7-28.72,17.08-45.96.25-11.64-.58-23.33.21-34.91,1.05-15.36,7.77-28.73,19.16-38.86,13.61-12.1,30.14-15.67,47.76-11.17,13,3.33,21.84,16.93,21.91,32.25.11,25.03,0,50.06-.03,75.09,0,9.34,0,18.67,0,28.53ZM1269.57,1509.15c-28.72-1-57.43-2.45-86.1-4.35-9.85-.66-19.61-3.13-29.34-5.11-3.15-.64-6.62-1.68-7.62-6.26,12.66.55,24.77,1.07,36.87,1.59,25.58,1.09,51.16,2.24,76.75,3.24,13.65.53,27.31,1.35,40.95,1.11,33.87-.61,67.68-2.61,100.89-9.85,9.4-2.05,18.48-5.54,27.72-8.36,2.11-.65,4.24-1.25,7.06-.69-1.89,1.3-3.7,2.73-5.68,3.86-22.07,12.64-46.01,19.41-71.12,22.35-30.05,3.51-60.22,3.52-90.38,2.48ZM1328.43,1579.45c-32.24-10.48-63.15-23.5-89.15-45.98,29.37,16,60.75,28.12,89.15,45.98ZM1488.81,1590.75c9.73-5.29,19.88-9.81,29.87-14.6,1.39-.66,3-.86,4.94-1.38.09,5.25-2.78,7.98-5.96,10.26-5.31,3.81-10.66,7.63-16.31,10.88-37.46,21.53-74.83,43.21-112.58,64.22-23.59,13.13-47.65,25.43-71.75,37.6-10.63,5.37-21.85,9.57-32.89,14.09-2.77,1.14-5.87,1.47-8.82,2.17-.45-.72-.89-1.44-1.34-2.15,2-1.81,3.81-3.9,6.03-5.38,6.62-4.41,13.2-8.96,20.16-12.78,62.82-34.41,125.69-68.73,188.64-102.92ZM1511.92,1326.81c-7.07-10.78-16.93-18.22-28.96-22.98-15.75-6.24-31.74-9.96-48.95-9.58-32.16.7-64.35.29-96.53.35-1.63,0-3.25,0-6.6,0,8.02-10.9,16.2-19.27,27.58-23.66,32.64-12.58,65.4-24.85,98.1-37.29,3.65-1.39,7.18-3.07,11.58-4.97.48,20.37.95,40.11,1.42,60.26-14.53-.94-28.03-2.12-41.55-2.6-13.65-.48-27.34-.47-41-.28-13.44.19-26.94-.19-40.33,1.04,0,.81.02,1.62.03,2.43,4.98,0,9.96,0,14.94,0,25.91.06,51.82.22,77.73.15,19.7-.06,38.14,5.64,56.27,12.32,15.89,5.85,27.76,16.92,34.78,32.33,9.31,20.44,18.83,40.86,26.56,61.92,20.03,54.56,35.54,110.33,44.5,167.94,8,51.39,9.65,103.04,10.56,154.86.55,31.01,2.72,61.98,4.13,92.98.81,17.63,1.53,35.25,2.35,52.88,3.13,67.43,4.58,134.89,3.55,202.38-.48,31.29-2.23,62.57-3.48,93.84-1.22,30.43-2,60.89-3.96,91.27-2.64,40.88-6.22,81.7-9.42,122.54-1.31,16.74-2.68,33.47-4.03,50.2-.11,1.37-.28,2.74-.42,4.11-.38-.02-.77-.03-1.15-.05,0-3.1,0-6.2,0-9.31.14-58.95.14-117.89.45-176.83.42-80.87,1.33-161.73,1.51-242.6.06-27.31-1.43-54.63-2.24-81.95-.58-19.6-1-39.22-1.87-58.81-.95-21.32-2.57-42.61-3.51-63.94-1.74-39.53-3.07-79.08-4.82-118.6-1.57-35.54-2.42-71.16-5.5-106.57-4.2-48.31-15.41-95.38-29.02-141.88-8-27.35-16.92-54.33-29.79-79.82-3.84-7.6-8.24-14.97-12.91-22.09ZM2032.36,1207.13c.16-5.83,3.48-8.62,6.49-11.47,7.44-7.05,15.06-13.91,22.45-21.01,5.17-4.96,9.62-10.48,11.68-17.57,4.27-14.66,1.73-30.63-17.5-38.13-14.18-5.53-28.9-8.57-43.9-10.27-49.89-5.65-99.99-5.92-150.1-5.03-9.64.17-19.27,1.7-28.9,2.61-5.37.51-10.74,1.04-15.34,1.49.22.08,1.29.44,3.71,1.26-5.9,1.81-10.58,3.24-15.27,4.68,32.35-6.36,64.96-8.83,97.96-7.52-6.72.93-13.45,1.86-20.17,2.8-6.76.95-13.53,1.86-20.27,2.9-18.31,2.82-36.2,7.21-53.79,13.14-33.08,11.15-49.37,34.71-52.37,68.59-.28,3.11-.36,6.26-.33,9.39.27,35.04,2.22,69.97,6.21,104.8,1.81,15.8,2.94,31.67,4.39,47.51-.56.18-1.12.37-1.68.55-1.17-3.17-2.79-6.26-3.42-9.54-2.92-15.07-5.87-30.15-8.2-45.32-1.89-12.33-2.92-24.78-4.59-37.17,1.33,29.18-3.61,57.62-9.93,85.88-.32,1.43-1.6,2.65-4.07,3.77-.1-3.23-.5-6.49-.24-9.69,1.19-14.75,2.97-29.46,3.8-44.22,1.9-33.51,6.22-66.92,4.55-100.6-.9-18.29-5.2-35.31-16.87-50.06-8.8-11.12-20.22-18.13-33.13-23.23-20.54-8.12-42.18-11.64-63.79-15.13-26.16-4.22-52.55-7.38-79.03-6.61-31.81.93-63.7,2.65-94.66,11.21-4.9,1.35-9.77,3.17-14.27,5.5-17.06,8.84-17.81,25.68-12.6,37.96,4.57,10.78,12.62,18.83,21.37,26.25,3.69,3.13,7.74,5.87,11.19,9.23,2.71,2.64,4.75,5.98,7.99,10.17-2.61,0-3.51.29-3.95-.04-10.18-7.73-20.66-15.14-30.35-23.45-7.87-6.74-13.22-15.57-16.4-25.58-5.03-15.83-1.58-28.24,11.21-38.93,8.89-7.43,19.18-12.23,30.48-14.66,26.46-5.68,53.07-9.83,80.23-10.75,27.87-.93,55.7-3.02,83.54-4.65,54.6-3.2,109.26-3.88,163.93-2.92,32.73.57,65.45,1.84,98.15,3.3,28.42,1.26,56.89,2.44,85.2,5.11,23.17,2.19,46.17,6.3,69.16,10.05,9.94,1.62,18.59,6.52,26.84,12.45,14.86,10.67,18.99,32.81,11.72,47.59-2.73,5.56-6.26,10.87-10.19,15.67-9.99,12.2-23.33,20.32-36.94,29.69ZM2140.22,1269.01c6.55,2.33,12.62,7.42,19.64,16.25-42.5.98-84.28,1.95-126.38,2.92-2.48-6.21-3.2-37.34-1.07-59.89,34.87,16.37,71.6,27.85,107.81,40.72ZM1735.25,2446.47c-4.27,3.51-8.55,3.24-12.76,3.24-13.36,0-14.78.93-20.06,13.51h-36.64c-.35-.66-.7-1.31-1.04-1.97,14.32-16.14,28.65-32.27,43.19-48.65,9.49,0,18.82-.12,28.15.03,9.31.15,18.61.58,28.24.89-5.11,14.54-8.67,17.28-22.34,17.86-4.16.18-8.32.31-13.04.49,2.39,5.51,4.35,10.04,6.32,14.59ZM1612.28,1339.2c23.4,2.97,46.96,4.68,70.46,6.96.28.03.57.02.85.05q17.91,1.66,25.04,17.87c.69,1.56,1.35,3.14,2.05,4.69,6.17,13.6,13.75,17.59,28.46,15.04.78-.14,1.63.1,2.5.16v282.12c-2.48.41-4.34.97-6.2.99-19.64.28-39.29.55-58.93.65-5.4.03-10.84-.22-16.18-.89-12.82-1.62-21.46-8.83-27.96-19.93-9.62-16.45-12.4-34.71-15.44-52.89-9.44-56.49-23.26-111.92-41.05-166.3-10.17-31.08-21.71-61.76-38.29-90.16-4.97-8.52-10.75-16.56-16.63-25.56,28.06,18.63,59.69,23.21,91.32,27.22ZM1514.24,1170.96c-8.5-9.76-18.72-18.02-29.71-28.37,21.81-1.25,42.13-2.41,63.1-3.61-5.7,22.95-11.18,45.01-17.12,68.93-1.38-15.39-7.66-27.06-16.27-36.95ZM1746.93,2347.56c-8.77.38-17.56.08-26.52.71,7.39,1.86,14.78,3.73,22.68,5.72-.45,2.54-.61,4.44-1.14,6.23-2.5,8.6-2.53,8.58-11.86,7.92-3.68-.26-7.37-.56-11.06-.6-6.99-.08-8.06.71-10.46,7.49-.85,2.4-1.4,4.9-2.25,7.95h-36.96c.49-1.56.53-2.47,1-3.06,10.9-13.8,20.94-28.37,35.08-39.27.45-.34,1.18-.57,1.33-1,2.99-8.52,10.13-7.42,16.87-7.4,12.47.05,24.94.01,38.02.01-1.37,11.67-4.25,14.84-14.73,15.3ZM1755.13,2366.49c13.67-.15,27.33-.24,41-.32,5.9-.04,11.81,0,17.91,0-4.42,13.77-13.71,16.63-26.15,15.87-11.88-.73-23.89.55-35.84.91-2.23.07-4.46.01-7.97.01,1.18-4.72,1.99-8.78,3.24-12.7,1.2-3.78,4.66-3.73,7.81-3.76ZM1750.92,2447.56c8.09-10.28,16.5-20.32,25.03-30.25,1.5-1.75,4.07-3.22,6.33-3.55,5.88-.85,11.86-1.17,17.82-1.37,6.52-.21,13.06-.05,20.68-.05-1.4,2.24-2.19,3.88-3.32,5.24-10.69,12.93-21.5,25.75-32.12,38.73-5.18,6.33-10.97,8.47-19.46,6.78-7.55-1.51-15.64-.32-24.77-.32,3.39-5.32,6.18-10.6,9.82-15.22ZM1808.59,2363.84c-15.87-.22-31.74.08-47.61.15-3.38.02-6.76,0-10.4,0-.21-6.2,3.94-9.22,8.08-12.16,4.14-2.94,7.85-4.83,13.88-3.34,16.93,4.16,34.33,3.13,51.61,1.89,1.3-.09,2.6-.25,4.18-.41-5.18,11.99-8.61,14.02-19.73,13.86ZM1825.78,2347.34c-17.01-.6-34.02-1.07-51.02-1.69-1.6-.06-3.17-.83-5.22-1.4.6-3.87,1.15-7.41,1.76-11.37,1.97-.28,3.88-.81,5.77-.77,16.17.31,32.34.75,48.51,1.1,4.19.09,8.39.01,13.6.01-1.88,3.47-3.48,6.43-5.09,9.38-1.79,3.29-4.47,4.88-8.32,4.74ZM1807.62,1667.75c-15.34.15-30.69.04-46.03.04-.69-2.13-1.27-3.14-1.32-4.18-.52-13.32-1.34-26.65-1.38-39.98-.26-77.75-.33-155.49-.44-233.24,0-2.21.27-4.41.42-6.78,2.68,0,4.89-.02,7.1,0,12.58.12,18.88-4.11,23.44-15.78,1.45-3.71,2.85-7.44,4.32-11.14,2.19-5.52,6.11-8.63,12.16-9.26,19.8-2.08,39.57-4.44,59.38-6.44,23.21-2.34,46.42-4.53,69.17-10.07,12.53-3.05,24.54-7.22,35.65-13.84,2.57-1.53,5.39-2.63,8.9-2.94-.97,1.54-1.78,3.2-2.94,4.59-11.41,13.7-19.74,29.14-26.56,45.54-28.84,69.37-48.92,141.26-62.35,215.09-2.9,15.94-5.24,32.03-9.2,47.7-2.26,8.94-6.68,17.51-11.21,25.64-5.45,9.79-15.13,13.51-25.84,14.13-11.08.64-22.19.82-33.28.92ZM1967.93,1204.64c-4.05-22.02-8.99-44.05-17.97-66.68,19.87,4.56,39.37,1.78,58.47,6.55-32.43,33.22-26.53,23.01-40.5,60.13ZM1580.19,2572.03c.02-3.98.18-7.98.58-11.94,1.34-13.37,7.16-22.45,23.88-26.21,20.94-4.71,38.13,2.14,50.83,19.6,9.48,13.03,14.86,27.45,14.46,43.76-.16,6.55-.15,13.11-.56,19.64-1.13,18.16,4.12,34.26,15.26,48.54.86,1.1,1.6,2.28,2.45,3.48-5.63,2-91.62,2.79-106.88.98-.19-1.67-.43-2.77-.42-3.87.11-31.32.23-62.65.41-93.97ZM1685.47,2553.55c-3.23-7.6-3.13-14.85.72-22.16,5.02-9.52,12.78-15.88,22.61-19.83,12.86-5.16,26.28-7.21,39.29-6.98,14.27-.03,27.51,1.4,40.14,6.45,8.86,3.54,16.6,8.55,22.5,16.33,11.63,15.34,6.01,31.15-5.51,39.94-5.58,4.26-11.95,7.87-18.5,10.41-23.13,8.98-46.75,8.78-70.34,1.85-14-4.11-24.99-12.05-30.91-26.01ZM1914.16,1603.82c-1.78,24.1-1.31,48.36-1.99,72.54-1.07,37.56-1.99,75.12-3.51,112.66-1.29,31.84-3,63.68-5.15,95.47-5.44,80.19-4.64,160.45-3.8,240.74.84,80.29.49,160.6.69,240.9.03,14.24.2,28.47.28,42.71.03,5.09,0,10.19,0,15.28-.56-.1-1.11-.19-1.67-.29-1.86-24.38-3.82-48.76-5.55-73.16-2-28.1-3.9-56.21-5.65-84.33-1.08-17.33-1.8-34.68-2.68-52.02-3.45-67.68-6.47-135.38-5.57-203.16.57-42.98,1.88-85.96,3.41-128.91,2.28-64.01,4.92-128.01,7.65-192.01,1.38-32.42,2.67-64.87,5.19-97.21,2.32-29.82,8.83-59.05,15.6-88.15,11.42-49.13,26.84-97.01,45.48-143.85,6.44-16.18,14.61-31.51,25.19-45.4,2.51-3.3,5.82-6.22,9.3-8.48,4.02-2.61,8.47-4.8,13.01-6.32,17.83-5.97,35.9-10.72,54.93-10.98,33.59-.45,67.18-1.17,100.77-1.85,3.45-.07,6.2.42,7.22,4.9-2.07.13-3.93.32-5.79.35-35.87.54-71.75,1-107.62,1.62-16.59.28-31.82,5.71-46.36,13.21-9.92,5.11-16.85,13.43-22.7,22.67-10.72,16.95-18.04,35.5-24.59,54.32-15.63,44.9-29.09,90.48-36.79,137.44-4.42,26.9-7.28,54.13-9.29,81.32ZM2162.21,1508.4c-29.83-.81-58.78-6.11-85.48-20.38-2-1.07-3.97-2.22-5.9-3.4-1.19-.73-2.29-1.59-3.44-2.39.1-.33.21-.67.31-1,10.9,2.89,21.76,5.95,32.72,8.63,20.5,5.01,41.39,6.97,62.41,8.51,39.02,2.85,77.86-.82,116.78-2.02,25.55-.79,51.1-1.4,76.65-2.09.17.62.35,1.23.52,1.85-1.44.89-2.79,2.02-4.35,2.63-13.43,5.22-27.58,6.7-41.79,7.47-49.44,2.69-98.93,3.54-148.43,2.2ZM2261.46,1534.42c-27.58,20.78-58.34,35.09-91.17,45.2,29.51-16.86,59.47-32.79,91.17-45.2ZM2102.15,1641.2c29.33,15.76,58.82,31.24,88.06,47.17,9.98,5.44,19.47,11.78,29.09,17.85,2.53,1.59,4.72,3.71,7.06,5.59-.45.82-.91,1.63-1.36,2.45-3.71-1.07-7.68-1.62-11.08-3.3-39.78-19.69-79.82-38.9-119.07-59.59-29.18-15.39-57.43-32.58-85.86-49.36-9.53-5.62-18.43-12.33-27.42-18.83-2.57-1.86-4.4-4.72-6.57-7.12.37-.55.75-1.09,1.12-1.64,1.92.66,3.99,1.05,5.75,2,40.1,21.56,80.15,43.23,120.26,64.78ZM2330.29,1655.28c-57.51-17.76-117.44-25.26-176.25-37.88.1-.63.2-1.26.3-1.9,36.62,3.45,73.24,6.89,111.16,10.46-.55-6.63-1.02-12.41-1.5-18.13,13.93-4.85,62.21,4.72,80.3,15.99-4.55,10.22-9.12,20.48-14.01,31.46ZM2408.97,1360.27c-1.35-8.02-2.96-15.99-4.59-24.73,15.13,1.19,29.56,1.45,43.38,6.27,22.79,7.95,36.22,24.29,40.08,47.65,4.04,24.48,2.62,49.3,1.85,74.01-.01.42-.58.83-.89,1.24-.26.07-.69.27-.76.19-6.09-7.25-14.43-6.57-22.63-6.53-17.91.08-35.82.06-53.72.08-3.01,0-6.03,0-9.2,0,2.69-9.16,5.63-17.12,7.33-25.33,5.03-24.29,3.25-48.61-.84-72.85ZM2392.7,1496.17c1.42-.15,3.63-.58,5.85-.61,23.63-.31,47.26-.76,70.89-.74,11.9.01,18.77,6.97,18.97,19.14.21,13.09-.26,26.19-.62,39.29-.34,12.52-.86,25.03-1.37,37.55-.59,14.44-1.25,28.88-1.88,43.29-13.81-2.87-27.01-6.32-40.42-8.24-19.12-2.73-38.39-4.51-57.64-6.29-4.35-.4-7.07-1.49-9.65-5.31-5.77-8.56-14.7-13.46-24.05-16.99-13.56-5.12-27.43-9.4-41.17-14.03-2.07-.7-4.13-1.4-7.33-2.48,2.59-2.67,4.36-4.77,6.41-6.56,13.28-11.62,26.83-22.95,39.88-34.83,11.99-10.91,23.55-22.3,35.1-33.67,2.57-2.53,4.35-5.86,7.01-9.53ZM2378.32,1349.52c3.03,18.18,6.51,36.3,6.12,54.89-.37,17.38-5.06,33.57-12.62,49.04-3.44,7.05-8.53,12.68-15.44,16.58-4.19,2.36-8.32,4.83-12.47,7.24-.38-.34-.76-.67-1.14-1,1.25-1.76,2.42-3.6,3.78-5.27,18.87-23.28,27.72-49.83,26.08-79.81-.67-12.19-1.37-24.37-2.02-36.56-.09-1.67-.01-3.36-.01-5.57,2.38-.46,4.46-.87,6.23-1.21.79.85,1.43,1.22,1.51,1.67ZM2225.33,1316.67c14.83-4.61,29.61-5.51,44.29.22,13.98,5.46,28.69,6.97,43.42,8.3,14.73,1.33,29.51,2.12,44.24,3.46,4.48.41,8.92,1.69,13.28,2.92,1.35.38,2.38,1.91,4.97,4.12-3.96.72-6.29,1.39-8.66,1.54-9.09.58-18.19,1.28-27.29,1.44-49.81.88-99.63,1.71-149.45,2.37-40.14.53-80.29.81-120.43,1.19-4.51.04-9.02,0-14.69,0,.55-10.54,1.05-20.28,1.54-29.76,6.28-2.08,100.42-3.69,116.63-2.1.43,5.15.82,9.88,1.25,15.08,9.4,1.15,18.27-1.17,27.08-2.52,8.07-1.24,15.97-3.84,23.8-6.28ZM2228.37,1270.78c-15.03-.45-30.05-.92-45.07-1.53-3.08-.12-3.07-.4-5.26-5.68,19.37.58,37.55.87,55.4,4.74.03.66.07,1.31.1,1.97-1.72.18-3.45.55-5.17.5ZM2310.27,1220.86c-20.48,1.02-40.6-.54-60.7,1.39-2.77,12.52-.95,23.84,3.02,36.09-4.29,0-8.09.08-11.88-.01-33.81-.82-66.66-7.26-98.81-17.38-20.06-6.31-39.95-13.16-59.88-19.88-3.71-1.25-7.25-3.02-10.83-4.54,3.75-10,11.37-15.81,21.15-15.84,31.88-.11,63.76-.04,95.64.02,13.62.03,27.29-.97,40.7,2.88,3.73,1.07,7.92.72,11.9.72,20.21-.02,40.42-.13,60.63-.21,2.8-.01,5.6,0,9.06,0v16.77ZM2267.23,848.09c9.99-11.7,22.09-19.99,37.99-20.14,59.8-.57,119.6-1.19,179.4-1.06,28.6.07,46.28,15.74,51.74,43.67,1.25,6.38,2.11,12.83,3.34,20.38-1.6-1.33-2.61-1.8-3.06-2.59-5.45-9.82-14.47-13.12-24.95-13.77-2.56-.16-5.12-.21-7.69-.21-66.08-.06-132.15-.1-198.23-.13-3.42,0-6.83.1-10.25.16-8.6.15-17.31-.05-24.2,10.07-2.54-11.88-4.75-21.48-6.49-31.16-.28-1.56,1.17-3.78,2.4-5.21ZM2245.43,896.46c4.25,7.35,4.74,15.02,5.19,22.42,1.5,24.41,2.94,48.85,3.54,73.3.54,22.19.29,44.42-.31,66.61-.25,9.31-2.08,18.61-3.68,27.83-.53,3.04-1.19,6.64-4.59,8.67-5.7-17.71-5.89-177.34-.15-198.83ZM2301.49,1157.9c10.23-.02,11.9,1.71,12.38,11.52-14.54,2.56-200.22,2.49-211.03-.19.37-2.13.69-4.3,1.14-6.45.22-1.08.67-2.11,1.22-3.76,2.77-.22,5.55-.61,8.32-.62,62.65-.2,125.31-.39,187.96-.5ZM2210.73,985.39c.78,9.82,1.41,17.8,2.14,27.02-8.64.24-16.98.3-25.29.75-8.1.43-16.18,1.26-24.27,1.91,13.7-13.07,30.62-19.51,47.42-29.68ZM2165.86,1107.01c6.14,3.99,12.17,8.15,19.65,13.18-3.27.69-4.97,1.35-6.68,1.36-21.92.13-43.83.13-65.75.26-3.93.02-6.86-.48-8.89-4.75-9.97-21.03-27.91-32.44-49.27-39.1-14.74-4.6-30.05-6.53-45.43-6.74-7.01-.1-11.24-1.99-14.66-8.57-7.3-14.03-15.71-27.49-23.76-41.36h177.81c0,8.58-.11,15.94.02,23.3.19,10.81.93,21.63.74,32.43-.23,13.23,5.34,22.92,16.21,29.99ZM2151.47,983.34c1.38,0,2.75.33,4.68.58-.84,8.18-.87,8.3-6.87,9.26-2.24.36-4.53.5-6.8.51-61.42.12-122.83.25-184.25.25-9.82,0-9.94-.38-11.92-10.64,3.61-.32,7.15-.92,10.68-.9,64.83.27,129.65.6,194.48.95ZM2067.38,779.64c-.59,5.67-3.39,11.42-6.37,16.44-3.89,6.58-8.73,12.65-13.51,18.66-10.32,12.98-15.38,27.49-15.05,44.21.39,19.93-.06,39.87-.11,59.8-.04,14.22,0,28.43,0,43.23-2.95.35-5.11.83-7.27.83-30.19,0-60.38-.17-90.56-.06-6.95.03-12.81-1.86-17.63-6.91-4.52-4.74-8.99-9.53-13.68-14.09-5.3-5.15-10.63-10.29-16.3-15.03-3.45-2.88-7.54-5-11.32-7.44-5.58,5.61-14.28,6.68-17.9,15.32,5.23,5.6,10.45,11.54,16.05,17.1,9.1,9.02,18.37,17.87,27.7,26.66,25.39,23.94,44.92,52.08,60.1,83.37.98,2.02,1.68,4.17,3.18,7.93-18.58-7.11-36.85-7.3-55.17-7.83,6.38-21.58-.82-38.55-16.08-52.63-6.02-5.56-12.87-10.41-19.91-14.64-13.07-7.85-21.79-18.42-26.03-33.34-4.26-15-9.99-29.59-15.39-45.31,3.88-.78,7.36-1.45,10.82-2.2,3.05-.66,6.19-1.13,9.11-2.18,8.09-2.9,10.1-5.94,10.24-14.62.02-1.1,0-2.2,0-4.45,30.18-.33,59.97-.66,89.4-.98,4.02-7.7,4.71-13.64,2.96-25.54-10.43-1.14-21.18-.47-31.87-.6-10.82-.13-21.64-.03-32.47-.02-10.77,0-21.54,0-33.17,0-8.01-32.68-26.17-56.97-57.81-69.96,5.44,5.06,11.5,9.61,16.16,15.31,4.81,5.88,8.75,12.62,12.16,19.44,3.39,6.77,5.65,14.1,7.31,21.66-5.18-8.4-9.9-17.13-15.68-25.1-6.08-8.38-13.98-15.22-23.83-18.84-9.5-3.49-19.36-6.03-29.64-9.15.55-3.09,1.07-6.08,1.72-9.76,2.95-.13,5.73-.4,8.5-.35,25.05.45,50.1,1.04,75.16,1.39,5.67.08,11.35-.55,17.01-.94,6.21-.43,9.79-4.36,11.79-9.72,2.01-5.36-.14-10.31-3.5-14.23-1.56-1.81-5-2.57-7.66-2.75-4.81-.32-9.67.27-14.5.27-26.2.01-52.4-.04-78.6-.09-1.1,0-2.2-.22-3.88-.41v-8.38h294.93c.31,8.96,1.47,17.54.6,25.9ZM1879.33,693.14c1.1-.22,2.26-.23,3.39-.23,58.84-.13,117.69-.25,176.53-.35,3.12,0,6.26.15,9.37.43,3.2.29,4.41,2.14,3.25,6.59h-194.19c-.27-1.61-.58-3.42-.89-5.29,1.05-.49,1.76-1,2.54-1.15ZM1851.08,693.68v16.33h-53.76c-.28-6.07-.5-10.8-.76-16.33h54.52ZM1726.55,693.56h49.79v16.05h-49.79v-16.05ZM1704.68,693.88v15.59h-53.96c-.24-5.39-.45-10.12-.69-15.59h54.66ZM1428.94,694.61c9.14-2.54,173.26-3.63,197.51-1.21v6.5c-1.81.26-3.43.69-5.04.68-61.41-.13-122.81-.3-184.22-.47-1.7,0-3.41-.05-5.11-.17-3.61-.26-4.05-2.41-3.14-5.33ZM1432.43,770.47c.15-5.05.03-10.11.03-15.05,13.22-2.54,277.02-3.32,297.18-.89.34,1.86.72,3.92,1.09,5.97-1.13.67-1.82,1.42-2.54,1.46-6.25.33-12.51.76-18.76.73-22.21-.1-44.42-.39-66.63-.58-3.42-.03-6.84.03-10.25.19-9.17.41-9.24.48-11.05,6.37-2.4,7.8-1.16,14.12,4.65,17.44,3.8,2.18,8.5,3.85,12.81,3.89,23.06.19,46.12-.12,69.18-.44,7.91-.11,15.8-.73,24.32-1.15v12.47c-14.52.86-28.12,5.03-39.39,15.08-10.99,9.8-18.54,22.13-26.22,35.99,2.73-21.7,11.1-38.67,29.94-51.21-5.95-.48-9.07,1.85-12.16,3.87-19.17,12.53-30.91,30.65-38.59,51.77-.86,2.37-1.64,4.77-2.83,8.25-15.82.35-31.7.85-47.59,1.03-15.88.18-31.76.04-47.85.04v25.58c5.71.5,10.71,1.36,15.71,1.31,23.34-.22,46.68-.69,70.02-1.07,1.4-.02,2.79,0,4.6,0,.32,1.19.92,2.24.81,3.21-.94,8.43,3.66,13.14,10.57,16.67,6.36,3.25,12.57,6.74,20.63,5.86-3.71,10.31-7.22,20.07-10.74,29.82-1.25,3.48-2.58,6.93-3.78,10.43-4.48,13.09-12.28,23.43-23.9,31.26-8.95,6.03-17.27,13.02-25.64,19.86-15.89,12.97-21.17,29.66-16.87,49.57.17.79.02,1.65.02,2.32-17.79,2.1-35.35,4.18-53.34,6.3.4-1.29.57-2.7,1.23-3.8,10.02-16.55,19.1-33.79,30.5-49.34,9.51-12.98,21.43-24.3,32.88-35.75,13.88-13.88,28.39-27.13,42.6-40.67.8-.76,1.38-1.74,2.79-3.55-2.49-2.11-4.29-3.89-6.34-5.33-11.68-8.2-16.59-8.31-27.11,1.21-10.12,9.16-19.61,19.02-29.21,28.74-2.74,2.78-5.48,4.6-9.58,4.58-33.31-.11-66.63-.07-99.95-.12-1.07,0-2.15-.38-3.72-.69-.16-2.98-.41-5.75-.46-8.53-.53-31.6-1.09-63.2-1.52-94.81-.17-12.55-3.21-24.22-10.01-34.8-4.76-7.42-9.2-15.13-14.7-21.98-7.51-9.35-11.18-19.62-10.82-31.51ZM1345.36,983.49c5.68-.39,11.28-1.09,16.88-1.1,61.77-.09,123.54-.07,185.31-.05,2.2,0,4.4.39,7.39.68-1.28,6.65-5.08,9.3-10.22,10.14-3.91.63-7.92.96-11.89.97-60.06.04-120.11,0-180.17-.05-2.23,0-4.47-.37-7.29-.61v-9.97ZM1348.55,1080.97c.24-16.21.88-32.41,1.38-48.62.1-3.33.39-6.66.65-10.87,60.32-1.08,119.97.1,179.85,0-.05.78.17,1.71-.18,2.28-8.13,13-16.56,25.82-24.37,39.02-3.15,5.31-6.28,7.85-13.05,8.16-19.93.91-39.4,4.99-58.2,11.99-16.21,6.03-28.43,16.54-36.14,31.97-2.35,4.69-5.31,6.83-10.53,6.74-23.32-.37-46.64-.55-69.95-.83-1.09-.01-2.18-.38-3.26-.58-.25-.64-.51-1.28-.76-1.92,2.22-1.51,4.38-3.12,6.67-4.51,4.38-2.65,8.79-5.24,13.26-7.73,9.88-5.48,14.48-13.84,14.64-25.12ZM1287.06,989.42c18.17,4.09,32.66,13.43,47.7,26.16-16.81-1.27-31.78-2.39-47.7-3.59v-22.57ZM1246.35,950.42c.3-13.06,1.88-26.1,3.27-39.11.47-4.43,2.11-8.74,3.22-13.1.72-.01,1.45-.02,2.17-.03.88,7.85,2.4,15.7,2.55,23.57.74,38.71,1.46,77.43,1.45,116.15,0,16.18-1.74,32.36-2.91,48.53-.23,3.21-1.45,6.36-2.21,9.53-.69.04-1.38.07-2.07.11-.88-3.34-2.3-6.64-2.56-10.02-1.36-17.86-3.14-35.73-3.44-53.62-.45-27.32-.11-54.67.53-81.99ZM996.06,874.33c-1.99,0-3.99.17-5.98.11-11.06-.3-19.88,3.93-26.37,12.93-.63.87-1.36,1.66-2.69,2.13,2.37-20.14,3.68-40.61,22.82-53.7,6.51-4.45,13.54-7.25,21.38-7.72,9.37-.56,18.76-1.2,28.14-1.23,47.54-.15,95.08-.18,142.62-.08,7.95.02,15.92.6,23.84,1.37,13.27,1.28,23.37,8.27,31.47,18.47,2.98,3.75,4.35,8.09,3.26,12.8-1.72,7.41-3.76,14.74-5.67,22.1-.7.19-1.41.39-2.11.58-4.99-7.05-12.34-7.58-19.78-7.86-1.71-.07-3.41-.15-5.12-.15-68.6.07-137.21.15-205.81.23ZM1187.88,1159.3c8.45-2.24,169.17-2.71,205.06-.65.95,3.65,1.98,7.58,3.11,11.88h-210.98c1.23-4.92,2.05-8.18,2.81-11.23ZM1252.67,1238.47c-.32-15.13-1.3-16.32-16.7-16.84-11.95-.4-23.92-.2-35.88-.27-3.06-.02-6.13,0-9.8,0v-17.14c3.22-.14,5.99-.38,8.76-.37,14.24.09,28.48.56,42.71.28,12.2-.24,24.38-1.27,36.57-2.01,5.11-.31,10.21-1.05,15.32-1.08,35.88-.19,71.76-.28,107.64-.33,14.31-.02,19.45,2.29,30.36,13.38-1.49.89-2.8,1.85-4.25,2.5-35.72,15.97-73.15,26.86-111.01,36.14-12.3,3.01-25.41,2.8-38.16,3.82-10.47.84-20.96,1.32-32.33,2.01,1.18-1.71,2.21-2.84,2.83-4.16,1.41-2.99,2.94-5.98,3.82-9.15.58-2.12.16-4.53.12-6.8ZM1257.02,1269.99c4.22-4.12,9.33-3.27,13.76-3.72,26.01-2.65,46.28-2.14,52.48.92-5.91,3.67-49.44,5.63-66.25,2.81ZM1132.21,1329.05c4.24-.46,8.48-.98,12.73-1.3,17.29-1.32,34.63-2.22,51.87-4,10.4-1.07,20.93-2.58,30.94-5.48,13.07-3.79,26.22-5.05,39.62-4.41,3.56.17,7.21,1.49,10.55,2.92,13.3,5.72,27.41,7.19,41.6,8.28,1.92.15,3.88-.35,6.39-.61.64-4.58,1.26-8.98,1.96-13.99,38.01.47,75.76.93,114.69,1.4,1.22,9.81,2.39,19.23,3.61,29.01-1.69.4-2.72.86-3.75.86-76.54-.4-153.09-.62-229.63-1.39-24.16-.24-48.31-1.89-72.46-3.01-4.7-.22-9.6-.25-13.35-3.59.05-3.97,2.6-4.4,5.22-4.68ZM1118.52,1376.28c.73-8.14,2.08-16.22,3.22-24.87,2.93-.17,5.3-.3,8.37-.48,0,2.86.03,5.05,0,7.24-.22,13.35-.19,26.72-.75,40.06-1.18,28.32,8.67,52.76,25.74,75.37-5.01.33-8.45-2.56-11.76-5.24-13.17-10.69-19.95-25.11-23.89-41.23-4.13-16.9-2.43-33.89-.92-50.85ZM1010.45,1459.52c.4-19.33.73-38.66,1.41-57.98.22-6.22,1.04-12.48,2.22-18.6,4.72-24.43,25.88-42.67,50.74-44.29,10.14-.66,20.26-1.75,31.36-2.73-8.58,41.03-12.73,81.12,1.09,121.69-3.32.22-6.04.53-8.77.55-16.78.13-33.55.14-50.33.31-9.24.09-18.98-1.65-26.82,8.48-.49-3.86-.94-5.66-.9-7.44ZM1146.65,1597.11c-8.1,3.24-14.99,8.56-19.84,15.69-3.58,5.25-7.9,6.44-13.67,6.53-29.46.48-58.18,6.27-86.78,12.7-2.99.67-5.9,1.72-9.5,2.79-.41-3.2-.95-5.93-1.07-8.67-1.3-30.71-2.59-61.41-3.73-92.12-.28-7.39-.13-14.8.03-22.2.27-12.01,1.94-13.85,14.06-16.07,2.23-.41,4.5-.83,6.75-.87,23.33-.41,46.67-.69,70.01-1.16,3.18-.06,5.26.8,7.1,3.49,13.97,20.43,32.42,36.5,51.06,52.43,10.78,9.21,21.08,18.99,33.05,29.83-6.55,2.32-11.09,3.86-15.58,5.54-10.65,3.98-21.33,7.86-31.88,12.08ZM1191.16,1648.43c-6.58,1.69-13.09,3.64-20.37,5.68-4.75-9.96-9.24-19.38-13.7-28.73,9.19-8.76,37.66-17.73,53.14-16.59-.09,7.48,5.68,9.42,11.53,11.23,1.63.51,3.71.44,4.87,1.46,8.88,7.78,18.8,3.24,28.28,2.44,28.06-2.38,56.09-5.06,84.13-7.61,1.4-.13,2.82-.02,4.46,1.29-8.46,1.64-16.9,3.39-25.38,4.92-42.52,7.65-85.07,15.18-126.96,25.91ZM1006.34,1765.09c28.83-5.11,57.73-9.81,86.62-14.61,36.46-6.06,72.92-12.14,109.41-18.05,30.6-4.96,61.19-9.92,91.86-14.43,17.15-2.52,34.47-3.91,51.66-6.18,31-4.09,61.96-8.5,92.95-12.67,20.29-2.73,40.61-5.24,60.9-7.94,3.64-.48,7.23-1.4,11.5-2.25v-16.67c18.61-3.71,37.15-7.4,56.74-11.31.79,12.81,1.54,24.94,2.32,37.65-10.42,1.46-20.19,2.92-29.98,4.19-52.45,6.85-104.91,13.62-157.36,20.48-48.78,6.38-97.53,13.03-146.34,19.23-54.18,6.89-108.09,15.45-161.86,25-28,4.97-56.08,9.47-84.09,14.38-7.5,1.31-14.87,3.35-23.29,5.29-.6-4.57-1.12-8.59-1.76-13.51,14.14-3.02,27.36-6.25,40.73-8.62ZM1453.81,1735.58c-25.53,19.35-54.09,33.64-82.11,48.77-42.05,22.71-84.62,44.48-126.4,67.68-30.34,16.84-59.75,35.35-89.58,53.1-9.29,5.53-18.71,10.86-27.88,16.57-8.66,5.39-17.08,11.18-26.7,17.52-2.21-25.1-4.34-49.35-6.57-74.8,9.82-1.84,19.68-4.22,29.69-5.44,27.66-3.39,55.37-6.4,83.09-9.28,3.88-.4,7.93.79,11.91,1.25.14.69.28,1.39.42,2.08,7.98-4.29,16.03-8.46,23.93-12.89,40.68-22.84,81.3-45.77,121.97-68.62,8.43-4.74,17.01-9.21,25.44-13.95,20.4-11.48,41.68-20.88,64.23-27.3,1.29-.37,2.6-.62,4.77.41-2.06,1.64-4.09,3.32-6.19,4.91ZM1536.05,1807.06c7.63-.67,15.25-1.49,24.05-2.35v21.84c-38.69,4.19-77.39,7.33-116.93,9.48.5-5.98.91-11.26,1.38-16.54.3-3.4,2.18-4.74,5.62-5.02,28.64-2.38,57.26-4.89,85.88-7.41ZM1408.17,1867.67c-.4-.03-.8-.07-1.2-.1v-13.64c-21.85-2.64-43.03-.28-64.19,1.15-20.91,1.42-41.78,3.36-62.12,5.03-.19.31,0-.42.42-.6,26.76-11.45,53.7-22.09,83.63-21.36,15.35.37,30.72.07,46.96.07,1.16-4.26,1.95-7.17,3.06-11.24-25.91.7-50.98,1.88-76.07,3.69,26.96-13.24,56.75-15.02,86.63-21.17-5.74,19.54-11.43,38.86-17.11,58.19ZM1408.75,1924.38c-1.15.5-2.25,1.27-3.45,1.47-98.37,16.39-196.74,32.74-295.12,49.09-.2-.59-.39-1.17-.59-1.76,1.16-.66,2.25-1.67,3.49-1.92,22-4.51,43.93-9.5,66.06-13.27,61.38-10.47,122.83-20.54,184.3-30.49,13.74-2.23,27.66-3.38,41.51-4.95,1.18-.13,2.43.35,3.65.55.05.43.1.86.16,1.29ZM1323.65,1764.42c-33.93,5.56-67.98,10.4-101.97,15.56-16.86,2.56-33.68,5.39-50.57,7.75-11.82,1.65-23.72,2.76-35.6,4.01-2.41.25-4.86.04-7.35-.69,76.72-19.95,155.48-27.51,233.36-39.82-11.79,7.62-24.74,11.05-37.86,13.2ZM1189.25,1802.62c26.83-3.1,53.62-6.61,80.46-9.72,7.02-.81,14.13-.77,21.2-1.13.17.84.34,1.68.51,2.52-6.63,2.08-13.13,4.79-19.9,6.12-30.12,5.91-60.25,11.84-90.51,16.94-25.51,4.3-51.17,7.79-76.83,11.03-28.21,3.56-56.51,6.4-84.76,9.6-12.15,1.38-24.29,2.88-36.44,4.29-1.94.23-3.9.3-5.68.44-.51-.76-1.07-1.2-1.11-1.68-.87-13.49-.91-13.87,12.17-15.59,17.47-2.3,35.05-3.85,52.55-5.89,26.55-3.1,53.07-6.47,79.63-9.5,22.89-2.62,45.82-4.79,68.7-7.43ZM1104.03,1990.36c17.06-3.14,34.21-5.77,51.33-8.6,63.7-10.5,127.39-21.16,191.13-31.41,25.27-4.06,50.59-8.34,76.06-10.47,25.47-2.13,51.15-1.33,76.91,1.58-138.5,24.73-277.36,47.46-418.01,67.29,4.91-10.53,12.29-16.5,22.57-18.39ZM1431.34,1882.21c1.84-8.77,3.38-16.14,4.97-23.73,41.69-3.98,82.92-7.92,125-11.94v20.06c-42.25,5.08-85.05,10.22-129.96,15.62ZM958.18,1879.13c38.46-4.1,76.83-8.19,116.13-12.38-1.17,3.08-1.99,5.66-3.11,8.09-15.15,33.06-22.25,67.94-23.72,104.12-.72,17.63-1.45,35.27-2.25,52.9-.11,2.48-.63,4.95-1.85,7.38-.97-20.87-1.8-41.75-2.99-62.6-.47-8.2-1.63-16.37-2.65-24.52-.69-5.55-3.7-8.58-9.64-8.57-4.54,0-9.08-.77-13.62-.76-21.06.06-42.13.27-63.19.43-1.95.01-3.9,0-6.88,0,1.51-22.25,7.58-42.76,13.77-64.09ZM950.24,2204.54c2.85-17.93,5.2-35.95,7.94-55.06,2.8,0,5.85.01,8.9,0,20.22-.11,40.44-.53,60.65-.25,15.75.22,26.11-7.8,32.19-21.08,5.42-11.84,9.22-24.44,13.39-36.83,2.36-7,4.43-14.14,5.9-21.37,1.28-6.28,4.6-9,10.82-9.86,18.03-2.49,35.95-5.7,53.99-8.11,51.87-6.93,103.74-13.8,155.67-20.31,32.73-4.1,65.52-7.74,98.33-11.17,33.66-3.52,67.36-6.79,101.08-9.65,20.12-1.71,40.32-2.45,60.48-3.57,3.08-.17,6.17-.02,10.14-.02.19,4.35.5,7.96.49,11.57-.17,85.71-.32,171.43-.58,257.14-.17,54.39-.64,108.78-.6,163.17,0,6.71-1.99,10.58-8.07,13.11-4.97,2.06-9.86,4.56-14.33,7.55-12.79,8.55-20.66,19.85-20.39,36.11.43,25.05.2,50.12.42,75.18.09,10.29.47,20.72,7.69,29.06,3.83,4.43,8.32,8.29,13.89,13.76v56.23c-1.93.16-3.85.48-5.77.44-30.17-.54-60.36-.73-90.5-1.91-9.82-.38-19.78-2.51-29.22-5.37-6.9-2.09-13.42-6.12-19.42-10.28-8.45-5.86-13.34-14.3-15.9-24.46-12.76-50.73-26.14-101.32-38.66-152.11-5.09-20.66-15.11-37.62-30.93-51.82-28.63-25.71-57.54-51.09-89.94-71.96-49.81-32.07-104.06-53.47-162.17-65.14-41.79-8.39-83.97-11.98-126.51-9.83-19.3.97-38.53,3.43-57.76,5.55-27.15,2.98-54.24,6.46-81.39,9.39-37.62,4.06-75.27,7.88-112.93,11.64-10.47,1.05-21,1.59-31.51,2.25-2.11.13-4.24-.2-6.37-.32-.11-.54-.21-1.08-.32-1.62,2.51-.78,4.97-1.89,7.55-2.29,13.49-2.1,26.96-4.32,40.51-5.93,34.17-4.07,68.37-7.97,102.59-11.68,29.98-3.25,59.99-6.12,89.98-9.25,9.05-.95,18.05-2.3,27.1-3.31,6.11-.68,10.31-3.51,13.5-8.96,10.66-18.22,16.79-37.94,20.07-58.6ZM592.44,2405.77c3.15-.43,6.28-1.12,9.44-1.23,10.24-.37,20.5-.36,30.74-.79,36.69-1.55,73.36-3.42,110.06-4.8,41.82-1.58,83.66-2.95,125.5-4.07,49.52-1.32,99.06-2.13,148.59-3.44,40.79-1.08,79.93,6.23,117.08,23.01,29.03,13.11,57.97,26.5,86.39,40.88,27.41,13.87,54.18,29.03,81.08,43.89,11.5,6.36,22.07,14.12,30.65,24.26,2.9,3.43,5.73,6.97,5.3,12.24-16.67-17.58-38.17-26.87-59.43-36.44-31.9-14.36-63.66-29.08-95.94-42.52-35.96-14.97-73.55-23.86-112.59-25.91-22.74-1.19-45.48-2.4-68.23-3.3-53.48-2.13-106.97-4.12-160.46-6.07-25.32-.93-50.67-1.44-75.98-2.53-36.12-1.55-72.23-3.38-108.34-5.26-17.05-.89-34.08-2.15-51.12-3.24-4.41-.28-8.77-.71-12.76-2.48.01-.73.02-1.45.03-2.18ZM573.41,2218.84c7.01-11.27,13.24-21.3,19.85-31.93h33.8c-7.05,12.44-13.71,24.19-20.75,36.6-10.74-1.52-21.25-3.02-32.91-4.67ZM1203.57,2365.6c43.03,32.59,85.71,65.44,121.38,106.15-.39.55-.78,1.1-1.17,1.65-.97-.51-2.08-.86-2.89-1.55-19.3-16.41-38.23-33.26-57.92-49.18-20.89-16.9-39.18-36.43-58.38-55.05-.51-.5-.69-1.34-1.02-2.02ZM903.16,2486.41c37.26.25,74.52,2.47,111.77,4.12,23.58,1.04,47.18,2.24,70.7,4.19,28.88,2.39,58.02,3.65,86.08,11.64,14.72,4.19,29.08,9.82,43.28,15.6,35.56,14.49,70.98,29.31,106.36,44.25,12.72,5.37,24.39,12.5,32,24.59,2.67,4.24,4.64,8.9,6.94,13.38-.53.4-1.05.8-1.58,1.2-13.75-16.77-33.67-22.99-52.72-29.89-44.74-16.22-90.7-28.33-137.97-34.38-30.75-3.93-61.69-6.35-92.56-9.25-34.84-3.28-69.69-6.45-104.55-9.46-17.85-1.54-35.74-2.63-53.62-3.93-53.07-3.87-106.16-7.54-159.21-11.68-43.4-3.39-86.76-7.2-130.12-11.07-22.1-1.97-44.15-4.46-66.21-6.8-2.07-.22-4.06-1.07-6.09-1.63.07-.57.13-1.15.2-1.72,3.88,0,7.75,0,11.63,0,111.89.22,223.79.12,335.68.85ZM627.31,2554.53c41.09,3.46,82.15,7.39,123.22,11.14,25.78,2.35,51.56,4.62,77.32,7.14,26.61,2.6,53.18,5.54,79.78,8.16,20.95,2.06,41.93,3.75,62.88,5.81,37.36,3.67,74.71,7.46,112.05,11.27,22.63,2.31,45.31,4.32,67.86,7.27,39.18,5.14,78.35,10.45,117.38,16.58,21.04,3.31,41.85,8.19,62.64,12.86,22.66,5.09,40.29,17.75,52.2,37.92-1.26-.61-2.61-1.08-3.75-1.85-17.35-11.66-36.97-15.55-57.35-17.28-37.15-3.16-74.3-6.27-111.39-10.07-52.36-5.36-104.64-11.5-156.99-16.97-26.32-2.75-52.74-4.57-79.07-7.15-30.02-2.94-60.01-6.11-89.99-9.46-42.98-4.81-85.94-9.74-128.88-14.9-21.46-2.58-42.91-5.38-64.26-8.76-36.79-5.82-73.55-11.92-110.23-18.44-14.82-2.63-29.41-6.55-44.05-10.11-2.96-.72-5.8-2.23-8.42-3.82-.89-.54-1.5-2.65-1.17-3.72.31-.99,1.99-2.1,3.14-2.18,3.11-.22,6.26-.03,9.38.19,29.24,2.08,58.5,3.92,87.7,6.38ZM913.5,1731.69c1.29-3.9,3.63-7.44,5.89-11.94,7.14,7.95,9.33,16.12,7.7,25.19-2.57,14.26-6.09,28.37-8.13,42.7-3.2,22.51-5.91,45.1-8.12,67.73-5.66,57.88-5.46,115.96-4.58,174.02.51,33.57,2.04,67.14,3.35,100.69.64,16.48,1.98,32.92,2.71,49.4.32,7.06-1.13,13.93-4.42,22.62-1.95-4.08-3.53-6.36-4.16-8.88-2.83-11.28-6.19-22.5-7.89-33.96-4.82-32.41-5.82-65.14-7.34-97.83-2.42-52.1-1.51-104.17.58-156.23,1.99-49.5,6.29-98.79,16.77-147.33,1.91-8.87,4.78-17.55,7.64-26.18ZM506.01,1719.79c-1.49,2.89-2.52,6.02-3.76,9.04-.66-.21-1.31-.42-1.97-.64,4.02-15.62,7.84-31.3,12.11-46.86,3.84-14.03,8.8-27.67,16.3-40.23,20.04-33.56,49.56-51.89,88.6-53.94,31.03-1.63,62.03.37,93,2.45,15.9,1.07,31.87,1.16,47.77,2.21,22.41,1.49,44.93,2.42,67.15,5.48,30.44,4.19,55.08,18.96,72.41,44.99,3,4.51,4.31,8.73,3.3,14.31-3.47,19.28-6.36,38.66-9.65,59.08-10.9-17.06-27.38-23.11-45.1-26.05-20.75-3.44-41.64-6.12-62.54-8.55-24.59-2.85-49.23-5.26-73.88-7.51-17.85-1.63-35.74-3.1-53.64-3.89-27.57-1.22-55.18-1.83-82.77-2.6-4.83-.14-9.68.06-14.52.33-14.8.83-27.35,6.51-35.28,19.27-6.57,10.58-11.82,21.99-17.53,33.09ZM490.57,2576.06c-4.32,12.74-12.81,21.9-25.7,29.28,33.67-119.45,70.25-236.85,94.82-357.82,6.86,1.33,12.92,2.5,19.54,3.78-3.39,13.77-6.78,27.51-10.15,41.27-22.07,90.02-47.49,179.13-73.46,268.09-1.51,5.18-3.32,10.28-5.05,15.4ZM2985.34,2640.82c-24.41,1.83-48.85,3.31-73.23,5.47-34.86,3.09-69.69,6.49-104.5,10.1-25.47,2.64-50.93,5.42-76.3,8.88-33.54,4.57-67,9.72-100.45,14.86-41.04,6.31-82.05,12.87-123.07,19.34-38.21,6.03-76.38,12.29-114.62,18.1-33.47,5.09-67.01,9.65-100.51,14.54-27.87,4.07-55.69,8.45-83.57,12.39-24.22,3.42-48.49,6.5-72.76,9.57-11.08,1.4-21.79,3.91-32,8.58-20.02,9.17-41.57,11.92-63.13,13.49-54.79,3.99-109.6,7.59-164.45,10.7-34.68,1.97-69.41,3.5-104.13,3.89-37.86.43-75.75-.14-113.6-1.26-33.28-.98-66.55-2.96-99.78-5.16-34.93-2.3-69.83-5.05-104.69-8.23-22.98-2.1-45.52-6-66.84-16.13-9-4.28-19.63-5.64-29.7-7.1-40.82-5.91-81.71-11.33-122.57-16.96-25.36-3.49-50.74-6.86-76.07-10.6-28.14-4.15-56.22-8.68-84.33-13-46.95-7.21-93.91-14.37-140.85-21.6-26.43-4.07-52.8-8.49-79.26-12.32-36.03-5.22-72.09-10.3-108.21-14.92-36.4-4.66-72.85-9.11-109.35-12.86-29.72-3.06-59.55-5.1-89.35-7.29-16.65-1.22-33.35-1.83-51.05-2.77,1.53-1.22,2.43-2.18,3.52-2.76,10.05-5.33,20.2-10.48,30.18-15.95,3.51-1.92,6.37-2.8,10.25-.52,2.2,1.29,5.5.96,8.3.93,37.63-.46,75.07,2.45,112.44,6.51,34.49,3.75,69.02,7.2,103.49,11.13,35.6,4.05,71.15,8.5,106.72,12.81,34.44,4.17,68.89,8.32,103.32,12.59,29.63,3.68,59.24,7.52,88.85,11.29,28.21,3.59,56.42,7.19,84.63,10.78,34.7,4.41,69.38,8.92,104.1,13.21,21.45,2.65,42.98,4.68,64.4,7.52,17.19,2.28,34.36,4.88,51.35,8.29,7.36,1.48,14.42,4.99,21.27,8.29,5.61,2.7,10.79,6.34,16.04,9.76,16.9,11,35.76,16.01,55.55,17.7,18.99,1.62,38.03,2.52,57.05,3.81,30.08,2.03,60.15,4.27,90.23,6.15,22.44,1.4,44.9,2.74,67.38,3.45,33.28,1.05,66.59,2.58,99.85,1.95,35.54-.67,71.04-3.51,106.54-5.56,24.15-1.4,48.29-2.98,72.43-4.65,28.66-1.99,57.33-4.01,85.97-6.29,22.56-1.8,43.24-9.38,62.38-21.38,10.16-6.37,20.53-12.42,32.58-14.39,15.71-2.57,31.44-5.09,47.23-7.15,34.69-4.53,69.42-8.74,104.13-13.09,33.02-4.14,66.04-8.25,99.05-12.48,33.85-4.33,67.68-8.87,101.54-13.17,24.27-3.08,48.57-5.86,72.85-8.87,24.56-3.04,49.08-6.3,73.65-9.29,22.58-2.75,45.2-5.21,67.79-7.92,18.64-2.24,37.23-4.83,55.88-6.96,20.63-2.36,41.27-4.69,61.96-6.46,31.18-2.67,62.39-5.06,93.62-7.11,11.92-.78,23.91-.28,35.87-.4,2.56-.03,5.52.59,7.59-.47,6.08-3.11,10.8-.51,15.92,2.28,6.74,3.67,13.76,6.84,20.61,10.32,2.15,1.09,4.13,2.52,7.89,4.84-6.71.67-11.37,1.23-16.04,1.58ZM3011.09,2575.01c-4.22-10.55-7.93-21.34-11.13-32.24-25.5-87.08-49.16-174.67-71.54-262.61-2.45-9.64-4.58-19.36-6.98-29.53,6.3-1.4,12.35-2.74,19.37-4.3,5.61,24.01,10.76,47.29,16.52,70.41,7.77,31.18,15.62,62.35,24.14,93.32,13.36,48.53,27.35,96.89,40.98,145.34,3.54,12.59,6.77,25.27,10.06,37.94.82,3.15,1.3,6.38,1.23,9.85-10.41-7.33-18.07-16.7-22.66-28.18ZM1735.7,1648.27c-.01-.42-.02-.84-.03-1.26-29.28.91-58.56,1.82-87.84,2.73,0,.29.01.58.02.87,29.29-.78,58.57-1.56,87.86-2.34ZM1889.96,991.85c-7.66-7.5-15.33-14.99-22.99-22.49-.39.4-.79.8-1.18,1.2,7.83,7.33,15.66,14.65,23.5,21.98.22-.23.45-.46.67-.7ZM1941.33,1055.89c-3.41-3.2-6.82-6.41-10.24-9.61-.36.38-.72.75-1.08,1.13,3.29,3.33,6.58,6.66,9.87,9.99.48-.5.97-1,1.45-1.5ZM1616.46,984.98c.33.43.67.85,1,1.28,3.06-2.66,6.13-5.32,9.19-7.98-.4-.46-.8-.93-1.2-1.39-3,2.7-5.99,5.4-8.99,8.09ZM1554.38,1060.96c.66.5,1.33,1.01,1.99,1.51,1.94-3.13,3.88-6.26,5.82-9.39-.52-.33-1.03-.66-1.55-1-2.09,2.96-4.18,5.92-6.27,8.88ZM1636.59,978.27c.22.03.45.06.67.09,1.47-1.23,2.94-2.46,4.4-3.69-.3-.31-.6-.62-.9-.94-1.39,1.51-2.78,3.03-4.18,4.54ZM1639.45,963.08c.43.31.86.62,1.29.92,1.08-1.61,2.15-3.22,3.23-4.83-.31-.21-.63-.42-.94-.63-1.19,1.51-2.38,3.02-3.57,4.54ZM1638.84,1103.31c-10.74-.85-21.52-1.27-32.29-1.88,30.78,4.32,61.61,6.44,91.92,13.03-7.59-3.1-15.22-6.21-23.15-7.47-12.06-1.92-24.3-2.71-36.49-3.68ZM1714.05,2566.84c26.01,10.23,51.75,9.15,76.91-2.77,4.25-2.01,8.18-5.26,11.43-8.71,6.69-7.09,6.88-13.5,1.45-21.52-4.26-6.29-9.98-10.85-16.97-13.81-11.96-5.06-24.35-7.77-35.47-7.01-17.79.08-28.45,2.08-38.63,6.38-7.09,3-12.39,7.89-16.6,14.19-4.3,6.43-4.11,12.76.12,19.12,4.41,6.62,10.47,11.27,17.76,14.14Z"/></svg>